<?xml version="1.0" standalone="no"?>
<!DOCTYPE svg PUBLIC "-//W3C//DTD SVG 20010904//EN"
 "http://www.w3.org/TR/2001/REC-SVG-20010904/DTD/svg10.dtd">
<svg version="1.0" xmlns="http://www.w3.org/2000/svg"
 width="980.000000pt" height="980.000000pt" viewBox="0 0 980.000000 980.000000"
 preserveAspectRatio="xMidYMid meet">

<g transform="translate(0.000000,980.000000) scale(0.100000,-0.100000)"
fill="#000000" stroke="none">
<path d="M4841 7966 c-13 -14 -26 -40 -30 -58 -5 -28 -21 -43 -103 -98 l-97
-65 -1 -687 0 -688 -135 0 -135 0 0 331 0 331 25 30 c33 40 32 73 -5 110 -26
25 -36 29 -63 24 -69 -14 -95 -89 -49 -139 22 -23 22 -27 22 -355 l0 -332 -75
0 -75 0 0 48 0 47 -195 195 -195 195 0 231 0 230 30 29 c39 37 47 82 24 130
-32 68 -123 83 -177 29 -48 -47 -43 -119 12 -168 20 -18 21 -28 21 -265 l0
-246 195 -195 c171 -171 195 -199 195 -226 l0 -32 -162 -5 c-90 -2 -173 -8
-185 -12 l-23 -7 0 153 0 154 -193 193 -192 192 -249 0 -248 0 -19 24 c-77 97
-236 0 -189 -114 30 -73 124 -89 185 -30 l31 30 230 0 231 0 166 -170 167
-169 0 -152 0 -151 -59 -63 c-35 -38 -66 -82 -77 -112 -9 -26 -19 -50 -21 -52
-2 -3 -18 10 -36 27 l-33 32 -213 2 -214 3 -73 118 c-63 101 -72 122 -63 139
27 50 -19 124 -82 134 -43 6 -78 -12 -102 -54 -17 -29 -18 -39 -8 -72 11 -37
43 -67 78 -73 31 -5 37 -12 124 -151 l84 -136 220 0 221 0 42 -43 43 -43 -3
-140 -3 -139 -115 110 c-63 61 -128 121 -143 135 l-29 25 -430 5 -430 5 -54
100 c-51 96 -53 102 -47 157 5 54 4 58 -25 87 -80 81 -205 -5 -162 -110 12
-29 54 -59 83 -59 8 0 46 -60 86 -135 l72 -135 437 0 438 0 161 -152 162 -153
1 -117 0 -118 -48 0 -48 0 -195 195 -194 194 -247 0 -247 -1 -23 26 c-49 56
-133 49 -175 -13 -27 -40 -29 -71 -8 -111 37 -72 147 -79 190 -13 l15 23 234
0 234 0 188 -195 188 -195 68 0 68 0 0 -95 0 -95 -340 0 -339 0 -40 59 c-33
48 -40 66 -38 101 1 35 -3 46 -26 66 -38 32 -72 30 -108 -5 -33 -33 -35 -50
-14 -90 15 -29 33 -41 65 -41 11 0 37 -29 70 -80 l53 -80 358 0 359 0 0 -150
0 -150 -652 2 -652 3 -53 74 c-51 71 -53 76 -47 122 6 46 5 50 -29 84 -39 39
-70 44 -117 20 -36 -19 -52 -47 -52 -92 0 -44 42 -90 89 -99 28 -5 42 -20 95
-100 l63 -93 678 -1 677 0 0 -140 0 -140 -398 0 -399 0 -23 25 c-65 69 -176
22 -173 -73 2 -80 108 -122 167 -67 l27 25 400 0 399 0 0 -60 c0 -56 -2 -60
-23 -60 -15 0 -63 -41 -157 -135 l-135 -135 -153 0 c-150 0 -155 1 -184 25
-37 32 -72 32 -103 0 -63 -62 1 -154 83 -119 18 7 32 18 32 24 0 6 59 10 173
10 l172 0 135 135 c74 74 140 135 146 135 9 0 13 -50 17 -167 2 -93 8 -178 12
-190 l7 -23 -151 0 -151 0 -195 -191 -195 -192 0 -253 c0 -243 -1 -254 -20
-264 -25 -13 -50 -61 -50 -95 0 -41 26 -81 66 -100 75 -35 154 17 154 101 0
36 -6 49 -35 78 l-35 35 0 228 -1 228 173 167 173 168 155 0 156 0 36 -44 c23
-27 62 -56 105 -77 37 -19 70 -35 72 -37 3 -1 -9 -16 -25 -33 l-29 -30 -5
-216 -5 -217 -110 -68 c-103 -64 -113 -68 -155 -63 -27 3 -55 0 -70 -7 -33
-17 -63 -78 -54 -112 26 -104 176 -101 201 3 8 31 24 44 146 119 l137 85 0
222 0 222 45 42 45 41 135 0 c74 0 135 -3 135 -6 0 -3 -58 -67 -130 -142
l-130 -135 0 -428 c0 -329 -3 -429 -12 -437 -7 -5 -57 -33 -110 -62 -90 -48
-100 -51 -134 -41 -27 7 -45 7 -68 -3 -42 -17 -57 -38 -63 -85 -5 -36 -2 -44
30 -76 39 -39 70 -44 117 -20 32 17 50 43 50 73 0 14 34 37 135 91 l135 72 0
436 0 436 52 56 c28 31 99 105 156 164 l104 108 117 -3 116 -3 3 -42 3 -43
-195 -191 -196 -192 0 -253 c0 -243 -1 -254 -20 -264 -25 -13 -50 -61 -50 -95
0 -41 26 -81 66 -100 75 -35 154 17 154 102 0 37 -6 50 -35 80 l-35 36 0 226
0 226 195 190 195 190 2 65 3 65 97 3 97 3 3 -277 c2 -152 1 -279 -2 -283 -3
-4 -25 -21 -50 -38 -33 -22 -53 -30 -73 -26 -85 16 -109 -106 -26 -132 28 -9
73 24 77 56 2 18 20 36 67 64 l64 40 3 295 3 295 145 0 145 0 2 -650 3 -650
-78 -52 c-72 -48 -80 -51 -123 -46 -41 5 -50 2 -77 -23 -45 -42 -48 -105 -6
-148 60 -59 174 -12 174 71 0 13 32 41 93 83 98 68 108 77 106 100 -1 8 -1
309 0 668 l1 652 135 0 135 0 0 -399 c0 -350 -2 -400 -16 -412 -75 -62 -36
-179 60 -179 46 1 69 14 90 54 17 34 6 94 -24 118 -20 16 -20 25 -20 417 l0
401 60 0 c53 0 62 -3 69 -22 5 -13 59 -72 120 -132 l111 -109 0 -148 c0 -95
-4 -149 -10 -149 -6 0 -15 -12 -21 -26 -18 -50 12 -94 66 -94 58 0 86 69 45
110 -18 18 -20 33 -20 173 l0 152 -115 115 c-63 63 -115 118 -115 122 0 3 80
8 178 11 97 3 188 8 202 11 l25 7 -2 -153 -2 -153 196 -197 196 -196 248 -1
248 -2 30 -29 c52 -53 141 -38 176 30 19 37 19 54 -1 96 -36 76 -144 86 -189
17 l-15 -23 -234 0 -233 0 -167 170 -166 171 0 161 0 161 45 48 c24 26 57 74
72 106 15 32 29 60 31 62 1 3 18 -11 38 -30 l35 -34 216 -5 216 -5 72 -116
c61 -98 70 -119 63 -140 -32 -84 61 -166 141 -124 83 42 69 158 -22 188 -39
12 -48 23 -126 150 l-85 137 -221 0 -221 0 -47 48 -47 48 0 138 0 138 33 -27
c17 -15 83 -76 144 -136 l113 -109 423 0 c324 0 427 -3 439 -12 8 -7 38 -56
66 -108 49 -91 50 -97 45 -156 -5 -58 -4 -61 27 -87 103 -87 231 53 135 149
-13 13 -35 24 -48 24 -21 0 -34 19 -96 135 l-72 135 -439 0 -438 0 -129 123
c-70 68 -145 138 -165 157 l-38 33 0 129 0 128 33 0 c30 0 49 -15 171 -140
l137 -140 176 0 c172 0 176 0 205 -25 62 -52 138 -22 138 54 0 31 -6 44 -26
60 -35 28 -66 26 -102 -4 -29 -25 -33 -25 -199 -25 l-169 0 -133 140 -133 140
-49 0 -49 0 0 85 0 85 443 0 442 0 51 -78 c43 -65 50 -81 42 -102 -13 -36 0
-76 34 -105 39 -33 87 -33 126 0 40 34 49 75 25 123 -15 31 -26 39 -63 48 -41
10 -49 17 -110 107 l-65 97 -462 0 -463 0 0 150 0 150 657 -2 658 -3 51 -75
c49 -70 52 -78 47 -122 -5 -44 -3 -50 30 -83 68 -68 166 -26 167 71 0 50 -35
90 -87 100 -30 6 -42 18 -96 100 l-62 94 -682 0 -683 0 0 133 0 132 296 -3
c244 -2 299 -5 311 -17 44 -45 116 -17 121 48 6 66 -66 100 -121 57 -24 -19
-40 -20 -315 -20 -330 0 -299 -10 -294 96 l4 64 41 0 c41 0 46 4 237 195 l195
195 231 0 c223 0 232 -1 250 -21 31 -36 80 -52 118 -39 83 27 109 119 52 179
-50 52 -120 51 -168 -4 l-22 -25 -248 0 -249 0 -191 -195 c-160 -164 -195
-195 -219 -195 l-29 0 -1 118 c0 108 -5 155 -24 238 l-7 32 158 0 158 1 193
193 193 193 0 248 0 249 25 20 c68 53 36 178 -50 194 -111 21 -178 -115 -95
-193 l30 -28 0 -231 0 -230 -169 -167 -168 -167 -163 0 -162 0 -54 49 c-32 30
-78 59 -114 72 l-60 24 40 40 40 40 2 215 3 214 118 72 c104 63 122 71 142 62
30 -14 67 -4 102 26 23 20 28 32 28 69 0 52 -21 81 -71 97 -53 18 -104 -12
-123 -71 -14 -42 -22 -48 -153 -129 l-138 -84 0 -221 0 -221 -53 -52 -53 -53
-137 3 -137 3 38 40 c20 22 85 91 145 153 l107 114 0 428 0 428 103 56 c99 53
105 55 159 49 54 -5 59 -4 87 25 81 80 -5 205 -110 162 -29 -12 -59 -54 -59
-83 0 -8 -60 -46 -135 -86 l-135 -72 0 -438 0 -438 -162 -172 -162 -172 -121
3 -120 3 -2 35 c-2 33 8 45 148 184 l149 148 0 185 c0 183 0 185 25 215 61 73
-9 166 -100 132 -45 -18 -54 -104 -14 -140 17 -16 19 -32 19 -193 l0 -176
-145 -145 -145 -145 0 -52 0 -53 -85 0 -85 0 0 444 0 445 67 48 c62 44 72 48
126 48 54 1 62 4 88 33 61 68 15 172 -76 172 -34 0 -85 -49 -94 -89 -5 -29
-20 -44 -104 -100 l-97 -65 0 -468 0 -469 -147 3 -148 3 0 660 0 660 75 52
c69 48 78 52 117 47 111 -16 166 108 79 178 -32 27 -97 23 -125 -6z m97 -38
c29 -29 7 -78 -35 -78 -35 0 -52 43 -28 70 20 23 45 26 63 8z m1347 -158 c24
-27 13 -68 -22 -76 -20 -5 -31 -2 -45 16 -23 28 -23 35 2 60 25 25 42 25 65 0z
m-955 -291 c14 -26 -11 -69 -40 -69 -39 0 -58 60 -26 82 21 15 55 8 66 -13z
m-1605 -49 c0 -42 -23 -59 -59 -42 -52 23 -15 102 38 83 15 -6 21 -17 21 -41z
m1885 -229 c0 -29 -25 -45 -49 -31 -25 13 -27 45 -4 59 23 12 53 -4 53 -28z
m1420 -39 c18 -14 21 -25 16 -45 -9 -38 -53 -48 -78 -17 -23 28 -23 35 2 60
25 25 32 25 60 2z m-2695 -47 c0 -27 -3 -30 -30 -30 -21 0 -31 5 -33 18 -6 33
6 49 35 45 24 -3 28 -8 28 -33z m2141 27 c35 -24 18 -82 -24 -82 -33 0 -52 16
-52 45 0 37 44 59 76 37z m-3772 -118 c33 -32 13 -74 -36 -74 -40 0 -59 41
-33 70 22 24 48 26 69 4z m32 -570 c12 -48 -18 -75 -62 -56 -32 15 -34 65 -2
79 32 14 57 5 64 -23z m-644 -181 c25 -22 23 -50 -6 -68 -45 -30 -91 16 -61
61 18 28 41 31 67 7z m4006 -32 c31 -14 70 -43 97 -73 81 -90 76 -1 73 -1299
l-3 -1154 -23 -42 c-28 -54 -81 -107 -135 -135 l-42 -23 -1152 -3 -1151 -2
-58 21 c-73 28 -142 96 -167 165 -16 46 -17 128 -17 1200 l0 1151 31 62 c41
82 106 131 199 151 19 4 544 7 1165 6 l1130 -1 53 -24z m1365 -122 c20 -28 10
-58 -21 -66 -31 -7 -56 7 -60 36 -7 48 53 70 81 30z m-5109 -415 c23 -23 20
-51 -8 -69 -45 -30 -91 16 -61 61 18 28 47 31 69 8z m4714 -230 c4 -25 -19
-47 -41 -38 -22 8 -30 34 -16 51 17 20 53 12 57 -13z m-4463 -245 c14 -42 -45
-66 -61 -24 -10 25 4 45 30 45 16 0 27 -7 31 -21z m-667 -301 c17 -17 15 -53
-3 -68 -20 -17 -62 -5 -70 20 -14 44 41 80 73 48z m5986 -24 c19 -18 20 -28 6
-55 -20 -37 -80 -18 -80 26 0 42 44 59 74 29z m-443 -374 c19 -11 25 -45 11
-66 -13 -19 -39 -23 -61 -8 -25 18 -27 41 -4 66 19 21 27 22 54 8z m-4921
-251 c0 -54 -73 -64 -86 -12 -5 20 -2 31 15 44 31 26 71 7 71 -32z m4635 -50
c14 -43 -45 -66 -61 -24 -8 19 13 45 37 45 10 0 21 -10 24 -21z m-4461 -405
c7 -19 -10 -44 -29 -44 -19 0 -36 25 -29 44 3 9 16 16 29 16 13 0 26 -7 29
-16z m5036 -264 c24 -24 24 -29 4 -58 -18 -26 -41 -28 -66 -5 -22 20 -23 41
-1 65 21 23 38 23 63 -2z m-632 -192 c30 -30 -7 -95 -47 -80 -49 18 -38 92 14
92 12 0 26 -5 33 -12z m13 -548 c23 -13 26 -62 4 -80 -23 -19 -64 -4 -71 27
-5 20 -2 31 16 45 26 21 26 21 51 8z m-1196 -25 c0 -22 -31 -33 -47 -17 -17
17 -1 44 24 40 15 -2 23 -10 23 -23z m-1337 -73 c4 -28 -24 -40 -45 -19 -14
13 -14 19 -3 32 18 22 44 15 48 -13z m-1250 6 c7 -7 12 -21 12 -33 0 -12 -5
-26 -12 -33 -7 -7 -21 -12 -33 -12 -12 0 -26 5 -33 12 -7 7 -12 21 -12 33 0
12 5 26 12 33 7 7 21 12 33 12 12 0 26 -5 33 -12z m-554 -24 c21 -21 20 -40
-3 -63 -40 -40 -97 8 -66 55 18 28 46 31 69 8z m2724 -187 c4 -34 -30 -54 -64
-38 -31 14 -32 54 -2 75 19 13 25 14 43 2 11 -7 21 -25 23 -39z m-1404 -163
c33 -32 13 -74 -36 -74 -38 0 -55 33 -33 66 18 28 46 31 69 8z m-570 -260 c23
-23 20 -51 -8 -69 -45 -30 -91 16 -61 61 18 28 47 31 69 8z m1344 -156 c32
-32 -4 -87 -48 -73 -25 8 -37 50 -20 70 15 18 51 20 68 3z"/>
<path d="M4603 5768 c-5 -7 -62 -150 -126 -318 -64 -168 -179 -468 -255 -667
l-139 -363 96 0 96 0 71 203 72 202 287 0 288 0 76 -202 76 -203 104 0 c78 0
102 3 98 13 -5 12 -77 191 -192 472 -31 77 -86 212 -122 300 -194 478 -226
551 -240 563 -10 7 -49 12 -99 12 -53 0 -85 -4 -91 -12z m160 -333 c36 -99 88
-240 116 -314 28 -74 51 -136 51 -138 0 -2 -101 -3 -225 -3 -124 0 -225 3
-225 7 0 3 34 99 77 212 74 202 114 323 128 389 4 18 8 32 10 30 2 -2 33 -84
68 -183z"/>
<path d="M5527 5774 c-4 -4 -7 -310 -7 -681 l0 -673 95 0 95 0 -2 678 -3 677
-85 3 c-47 2 -89 0 -93 -4z"/>
<path d="M3908 4209 c-87 -32 -89 -192 -3 -233 42 -20 74 -20 125 0 40 16 40
16 40 71 l0 54 -52 -3 c-41 -2 -54 -7 -56 -20 -3 -14 3 -18 23 -18 29 0 45
-27 24 -41 -24 -15 -85 -10 -100 8 -8 9 -14 37 -14 63 0 26 6 54 14 63 18 22
89 23 97 2 9 -24 54 -19 54 5 0 44 -88 72 -152 49z"/>
<path d="M4120 4088 l0 -123 87 0 c88 0 106 6 96 32 -4 9 -25 13 -69 13 l-64
0 0 30 c0 28 1 29 58 32 50 3 57 6 60 26 3 21 0 22 -57 22 -58 0 -61 1 -61 25
0 24 2 25 65 25 58 0 65 2 65 20 0 19 -7 20 -90 20 l-90 0 0 -122z"/>
<path d="M4350 4090 c0 -112 1 -120 20 -120 17 0 19 8 22 77 l3 78 48 -78 c39
-62 53 -77 73 -77 l24 0 0 120 c0 113 -1 120 -20 120 -18 0 -20 -7 -20 -76 0
-41 -4 -73 -9 -70 -5 3 -27 37 -50 76 -34 56 -47 70 -66 70 l-25 0 0 -120z"/>
<path d="M4600 4087 l0 -123 83 3 c96 4 109 7 101 28 -5 11 -22 15 -70 15
l-64 0 0 30 c0 28 1 29 58 32 50 3 57 6 60 26 3 21 0 22 -57 22 -58 0 -61 1
-61 25 0 24 2 25 65 25 58 0 65 2 65 20 0 19 -7 20 -90 20 l-90 0 0 -123z"/>
<path d="M4830 4086 l0 -123 25 5 c23 4 25 9 25 53 0 36 4 49 15 49 16 0 49
-32 73 -72 12 -20 24 -28 44 -28 36 0 35 9 -7 64 -23 30 -30 46 -21 46 20 0
46 39 46 67 0 46 -32 63 -120 63 l-80 0 0 -124z m140 69 c19 -23 -5 -45 -51
-45 -37 0 -39 2 -39 30 0 28 2 30 39 30 22 0 44 -6 51 -15z"/>
<path d="M5137 4193 c-3 -10 -23 -64 -45 -120 -36 -91 -38 -102 -22 -106 23
-6 36 3 44 31 6 19 14 22 61 22 47 0 53 -2 59 -24 5 -21 47 -42 60 -29 2 2
-17 57 -44 121 -44 110 -49 117 -77 120 -22 2 -32 -2 -36 -15z m63 -120 c0
-14 -46 -18 -54 -5 -2 4 3 23 11 42 l15 35 14 -30 c7 -16 13 -36 14 -42z"/>
<path d="M5280 4190 c0 -16 7 -20 35 -20 l35 0 0 -100 c0 -100 0 -100 25 -100
23 0 40 27 34 56 -1 5 -1 39 0 77 l1 67 35 0 c28 0 35 4 35 20 0 19 -7 20
-100 20 -93 0 -100 -1 -100 -20z"/>
<path d="M5510 4091 l0 -120 38 -3 c20 -2 63 -1 95 0 48 3 57 7 57 23 0 17 -8
19 -70 19 l-70 0 0 30 c0 30 0 30 59 30 39 0 61 4 64 13 10 28 -6 37 -64 37
-56 0 -59 1 -59 25 0 24 2 25 65 25 58 0 65 2 65 20 0 19 -7 20 -90 20 l-90 0
0 -119z"/>
<path d="M5740 4090 l0 -120 75 0 c66 0 79 3 99 23 45 45 45 143 1 191 -22 24
-31 26 -100 26 l-75 0 0 -120z m128 72 c18 -12 33 -71 25 -101 -9 -41 -22 -51
-64 -51 l-39 0 0 80 0 80 33 0 c17 0 38 -4 45 -8z"/>
<path d="M4356 968 c19 -60 45 -111 54 -102 12 13 51 117 45 122 -3 3 -15 -19
-29 -49 l-23 -54 -19 53 c-18 50 -43 76 -28 30z"/>
<path d="M4480 925 l0 -65 39 0 c22 0 43 5 46 10 4 6 -10 10 -34 10 -34 0 -41
3 -41 20 0 16 7 20 35 20 19 0 35 5 35 10 0 6 -16 10 -35 10 -24 0 -35 5 -35
15 0 10 10 15 34 15 19 0 38 5 41 10 4 6 -12 10 -39 10 l-46 0 0 -65z"/>
<path d="M4606 974 c-23 -22 -20 -77 4 -99 16 -15 26 -17 48 -9 15 5 28 18 30
29 3 19 2 19 -11 3 -34 -42 -91 -1 -68 48 12 26 49 32 69 12 7 -7 12 -8 12 -2
0 33 -57 45 -84 18z"/>
<path d="M4710 980 c0 -5 9 -10 20 -10 18 0 20 -7 20 -57 0 -64 13 -64 16 0 2
57 2 57 19 57 8 0 15 5 15 10 0 6 -20 10 -45 10 -25 0 -45 -4 -45 -10z"/>
<path d="M4842 983 c-23 -9 -34 -54 -21 -85 24 -60 109 -40 109 26 0 50 -41
78 -88 59z m66 -61 c-2 -30 -7 -38 -26 -40 -49 -7 -72 53 -30 82 34 24 60 4
56 -42z"/>
<path d="M4957 983 c-11 -10 -8 -111 3 -118 6 -4 10 7 10 24 0 47 39 37 69
-17 5 -9 12 -14 16 -10 4 3 -2 19 -11 34 -14 20 -15 29 -6 32 18 6 15 49 -4
56 -21 8 -69 8 -77 -1z m76 -20 c12 -11 -14 -33 -39 -33 -17 0 -24 6 -24 20 0
15 7 20 28 20 16 0 32 -3 35 -7z"/>
<path d="M5130 925 l0 -65 45 0 c54 0 60 18 8 22 -27 2 -39 8 -41 21 -3 14 4
17 32 17 20 0 36 5 36 10 0 6 -16 10 -35 10 -24 0 -35 5 -35 15 0 10 10 15 34
15 19 0 38 5 41 10 4 6 -12 10 -39 10 l-46 0 0 -65z"/>
<path d="M5240 930 c0 -33 4 -60 10 -60 6 0 10 9 10 20 0 15 7 20 24 20 14 0
32 7 40 16 19 18 19 20 6 45 -8 14 -21 19 -50 19 l-40 0 0 -60z m75 20 c0 -9
-11 -16 -27 -18 -23 -3 -28 1 -28 18 0 17 5 21 28 18 16 -2 27 -9 27 -18z"/>
<path d="M5367 983 c-4 -3 -7 -17 -7 -29 0 -18 8 -25 32 -32 41 -10 51 -42 14
-42 -14 0 -28 5 -31 10 -3 6 -11 10 -17 10 -6 0 -3 -9 7 -20 21 -23 57 -26 75
-5 19 23 7 47 -30 60 -42 14 -45 29 -7 33 15 2 27 -2 27 -8 0 -6 5 -8 10 -5
18 11 -10 35 -40 35 -14 0 -30 -3 -33 -7z"/>
<path d="M5080 870 c0 -5 5 -10 10 -10 6 0 10 5 10 10 0 6 -4 10 -10 10 -5 0
-10 -4 -10 -10z"/>
</g>
</svg>
